<svg xmlns="http://www.w3.org/2000/svg" width="283.78" height="100.31" viewBox="0 0 283.78 100.31">
  <g transform="translate(0 0)">
    <g transform="translate(0 0)">
      <g transform="translate(0 29.86)">
        <path d="M25.23,8.1,26.72.94h2.92c.52,0,2.2,0,2.2,1.8a2.67,2.67,0,0,1-1.12,2.2,4.784,4.784,0,0,1-2.5.43h-.95L26.7,8.1Zm2.29-3.93h.45a4.044,4.044,0,0,0,1.71-.2,1.291,1.291,0,0,0,.7-1.11c0-.74-.62-.72-1.37-.72H27.95Z" transform="translate(-0.13 -0.82)" fill="#fff"/>
        <path d="M35.26,3.94h-.99L33.4,8.1H32l.87-4.16h-.79l.22-1.02h.78l.11-.54c.16-.76.33-1.56,1.62-1.56a4.62,4.62,0,0,1,1.35.23l-.27,1.01a2.841,2.841,0,0,0-.81-.18c-.38,0-.44.25-.52.67l-.08.37h.99Z" transform="translate(-0.13 -0.82)" fill="#fff"/>
        <path d="M35.82,4.27a2.267,2.267,0,0,1,2.36-1.48c1.83,0,1.97,1.08,1.97,1.39a7.425,7.425,0,0,1-.27,1.58c-.02.08-.12.52-.13.61a4.619,4.619,0,0,0-.14.99,2.5,2.5,0,0,0,.11.74H38.36a2.277,2.277,0,0,1-.1-.59,2.03,2.03,0,0,1-1.51.71,1.438,1.438,0,0,1-1.49-1.51c0-1.55,1.44-1.67,2.11-1.72a6.727,6.727,0,0,0,1.34-.2,1.627,1.627,0,0,0,.09-.47c0-.38-.35-.53-.72-.53a.814.814,0,0,0-.89.59Zm2.7,1.41a1.2,1.2,0,0,1-.33.06c-.86.11-1.61.24-1.61.85a.583.583,0,0,0,.64.58c.99,0,1.18-.88,1.27-1.3Z" transform="translate(-0.13 -0.82)" fill="#fff"/>
        <path d="M44.24,8.1l.12-.54-.02-.02a2.15,2.15,0,0,1-1.61.68c-1.11,0-1.8-.78-1.8-2.17,0-1.67,1.01-3.26,2.56-3.26a1.742,1.742,0,0,1,1.57.83L45.62.94h1.4L45.52,8.1Zm-.98-.94c1.03,0,1.43-1.33,1.43-2.08a1.093,1.093,0,0,0-1-1.21c-.9,0-1.4,1.21-1.4,2.12C42.29,6.63,42.63,7.16,43.26,7.16Z" transform="translate(-0.13 -0.82)" fill="#fff"/>
        <path d="M49.34,2.92,48.26,8.1h-1.4l1.08-5.18ZM49.76.94l-.27,1.27h-1.4L48.36.94Z" transform="translate(-0.13 -0.82)" fill="#fff"/>
        <path d="M51.08.94h1.4l-.5,2.4a2.217,2.217,0,0,1,1.45-.55c1.31,0,1.81,1.02,1.81,2.15,0,1.86-1.16,3.28-2.57,3.28a1.683,1.683,0,0,1-1.62-.97h-.02l-.17.85H49.58Zm1.38,6.22c.99,0,1.42-1.36,1.42-2.18,0-.76-.45-1.19-.98-1.19-.88,0-1.43,1.1-1.43,2.2A1.083,1.083,0,0,0,52.46,7.16Z" transform="translate(-0.13 -0.82)" fill="#fff"/>
        <path d="M57.3,5.94c-.04.81.43,1.28,1.01,1.28A1.224,1.224,0,0,0,59.4,6.5l1.26.21A2.514,2.514,0,0,1,58.3,8.22a2.257,2.257,0,0,1-2.35-2.41,2.875,2.875,0,0,1,2.89-3.02,2,2,0,0,1,2.07,2.24,4.529,4.529,0,0,1-.09.91Zm2.34-.85c.03-.69-.22-1.3-.95-1.3-.81,0-1.15.81-1.25,1.3Z" transform="translate(-0.13 -0.82)" fill="#fff"/>
        <path d="M65.25,8.1l-.24-3.3h-.02L63.42,8.1h-1.3l-.65-5.18h1.24l.35,3.47h.02l1.61-3.47h1.27l.17,3.47h.02l1.6-3.47h1.4L66.57,8.1Z" transform="translate(-0.13 -0.82)" fill="#fff"/>
        <path d="M70.49,5.94c-.04.81.43,1.28,1.01,1.28a1.224,1.224,0,0,0,1.09-.72l1.26.21a2.514,2.514,0,0,1-2.36,1.51,2.257,2.257,0,0,1-2.35-2.41,2.875,2.875,0,0,1,2.89-3.02A2,2,0,0,1,74.1,5.03a4.53,4.53,0,0,1-.09.91Zm2.34-.85c.03-.69-.22-1.3-.95-1.3-.81,0-1.15.81-1.25,1.3Z" transform="translate(-0.13 -0.82)" fill="#fff"/>
        <path d="M75.89,8.59c-.01.27.09.61.76.61.96,0,1.07-.54,1.24-1.44l.04-.23-.02-.02a2.132,2.132,0,0,1-1.48.61c-.77,0-1.74-.47-1.74-2.11,0-2.03,1.2-3.22,2.49-3.22a1.748,1.748,0,0,1,1.61,1.04h.02l.18-.91h1.32l-.9,4.32c-.4,1.92-.62,2.96-2.79,2.96-.59,0-2.41,0-2.21-1.83Zm1.1-1.51c.9,0,1.42-1.12,1.42-2.06a1.116,1.116,0,0,0-.98-1.23c-.99,0-1.37,1.52-1.37,2.08C76.06,6.64,76.45,7.08,76.99,7.08Z" transform="translate(-0.13 -0.82)" fill="#fff"/>
        <path d="M83.07,2.92l-.64,3.07a.412.412,0,0,0-.02.09,3.289,3.289,0,0,0-.1.59.558.558,0,0,0,.59.55,1.546,1.546,0,0,0,1.05-.58,2.826,2.826,0,0,0,.52-1.26l.51-2.46h1.4L85.3,8.1H83.99l.15-.68-.02-.02a2.657,2.657,0,0,1-1.85.82A1.27,1.27,0,0,1,80.9,6.87a5.035,5.035,0,0,1,.16-1.06l.61-2.89Z" transform="translate(-0.13 -0.82)" fill="#fff"/>
        <path d="M89.13,2.92l-.14.65.02.02a2.676,2.676,0,0,1,1.83-.8,1.261,1.261,0,0,1,1.37,1.34,5.673,5.673,0,0,1-.15,1.03L91.44,8.1h-1.4l.62-2.95a.8.8,0,0,1,.03-.16,1.676,1.676,0,0,0,.04-.2,1.732,1.732,0,0,0,.06-.42.552.552,0,0,0-.6-.58,1.626,1.626,0,0,0-1.13.7,3.594,3.594,0,0,0-.49,1.48L88.12,8.1h-1.4l1.09-5.18Z" transform="translate(-0.13 -0.82)" fill="#fff"/>
        <path d="M94.22,8.59c-.01.27.09.61.76.61.96,0,1.07-.54,1.24-1.44l.04-.23-.02-.02a2.132,2.132,0,0,1-1.48.61c-.77,0-1.74-.47-1.74-2.11,0-2.03,1.2-3.22,2.49-3.22a1.748,1.748,0,0,1,1.61,1.04h.02l.18-.91h1.32l-.9,4.32c-.4,1.92-.62,2.96-2.79,2.96-.59,0-2.41,0-2.21-1.83Zm1.1-1.51c.9,0,1.42-1.12,1.42-2.06a1.116,1.116,0,0,0-.98-1.23c-.99,0-1.37,1.52-1.37,2.08C94.39,6.64,94.78,7.08,95.32,7.08Z" transform="translate(-0.13 -0.82)" fill="#fff"/>
        <path d="M103.34,5.71c.02.62.05,1.28,1.42,1.28.5,0,1.36-.13,1.36-.88,0-.51-.43-.69-1.21-1.03-1.24-.54-2.11-.92-2.11-2.16,0-.86.54-2.1,2.55-2.1,1.37,0,2.6.59,2.71,2.16l-1.41.07c-.08-.83-.64-1.06-1.31-1.06-.25,0-1.13,0-1.13.75,0,.51.48.72,1.3,1.07,1.23.53,2.07.9,2.07,2.12,0,1.05-.81,2.29-2.83,2.29-1.02,0-2.31-.32-2.67-1.44a3.066,3.066,0,0,1-.14-1Z" transform="translate(-0.13 -0.82)" fill="#fff"/>
        <path d="M113.29,6.37a2.6,2.6,0,0,1-2.53,1.85A2.035,2.035,0,0,1,108.61,6a2.992,2.992,0,0,1,2.96-3.21,1.9,1.9,0,0,1,2.09,1.74l-1.34.14a.823.823,0,0,0-.84-.84c-1.09,0-1.48,1.51-1.48,2.34,0,.67.4.95.79.95a1.246,1.246,0,0,0,1.13-.97Z" transform="translate(-0.13 -0.82)" fill="#fff"/>
        <path d="M113.86,8.1l1.5-7.16h1.4l-.53,2.55a2.76,2.76,0,0,1,1.76-.7,1.258,1.258,0,0,1,1.36,1.31,4.83,4.83,0,0,1-.14.97l-.63,3.03h-1.4l.64-3.09a2.641,2.641,0,0,0,.11-.64.552.552,0,0,0-.6-.58,1.549,1.549,0,0,0-1.13.72,3.626,3.626,0,0,0-.51,1.54l-.43,2.05Z" transform="translate(-0.13 -0.82)" fill="#fff"/>
        <path d="M124.06,8.1l-.24-3.3h-.02l-1.57,3.3h-1.3l-.65-5.18h1.24l.35,3.47h.02l1.61-3.47h1.27l.17,3.47h.02l1.6-3.47h1.4L125.38,8.1Z" transform="translate(-0.13 -0.82)" fill="#fff"/>
        <path d="M129.29,5.94c-.04.81.43,1.28,1.01,1.28a1.224,1.224,0,0,0,1.09-.72l1.26.21a2.514,2.514,0,0,1-2.36,1.51,2.257,2.257,0,0,1-2.35-2.41,2.875,2.875,0,0,1,2.89-3.02,2,2,0,0,1,2.07,2.24,4.529,4.529,0,0,1-.09.91Zm2.35-.85c.03-.69-.22-1.3-.95-1.3-.81,0-1.15.81-1.25,1.3Z" transform="translate(-0.13 -0.82)" fill="#fff"/>
        <path d="M135.79,2.92,134.71,8.1h-1.4l1.08-5.18Zm.42-1.98-.27,1.27h-1.4l.27-1.27Z" transform="translate(-0.13 -0.82)" fill="#fff"/>
        <path d="M136.06,7.15l2.84-3.14h-2.32l.23-1.09h4.07l-.17.83-2.87,3.21h2.5L140.1,8.1h-4.24Z" transform="translate(-0.13 -0.82)" fill="#fff"/>
        <path d="M8.24,20.1l-.26-5.98H7.96L6.83,20.1H5.5L7,12.94H9.1l.21,5.02h.02l2.43-5.02h2.12l-1.5,7.16H11.04l1.41-5.92-.02-.02L9.63,20.1Z" transform="translate(-0.13 -0.82)" fill="#fff"/>
        <path d="M16.97,14.79a2.193,2.193,0,0,1,2.43,2.34,2.948,2.948,0,0,1-2.96,3.09,2.2,2.2,0,0,1-2.41-2.27A2.893,2.893,0,0,1,16.97,14.79Zm0,1.06c-1.2,0-1.55,1.46-1.55,2.08a1.12,1.12,0,0,0,1.07,1.23c1.01,0,1.52-1.26,1.52-2.21A1.017,1.017,0,0,0,16.97,15.85Z" transform="translate(-0.13 -0.82)" fill="#fff"/>
        <path d="M22.4,14.92l-.64,3.07a.412.412,0,0,0-.02.09,3.29,3.29,0,0,0-.1.59.558.558,0,0,0,.59.55,1.546,1.546,0,0,0,1.05-.58,2.826,2.826,0,0,0,.52-1.26l.51-2.46h1.4L24.63,20.1H23.32l.15-.68-.02-.02a2.657,2.657,0,0,1-1.85.82,1.27,1.27,0,0,1-1.37-1.35,5.034,5.034,0,0,1,.16-1.06L21,14.92Z" transform="translate(-0.13 -0.82)" fill="#fff"/>
        <path d="M27.46,20.1l-1.04-5.18h1.37l.37,2.26c.01.03.02.11.04.21a9.562,9.562,0,0,1,.13,1.01h.02a2.008,2.008,0,0,1,.17-.34l.2-.36c.08-.16.2-.38.33-.6l1.29-2.18h1.51L28.66,20.1Z" transform="translate(-0.13 -0.82)" fill="#fff"/>
        <path d="M33.16,17.94c-.04.81.43,1.28,1.01,1.28a1.224,1.224,0,0,0,1.09-.72l1.26.21a2.514,2.514,0,0,1-2.36,1.51,2.257,2.257,0,0,1-2.35-2.41,2.875,2.875,0,0,1,2.89-3.02,2,2,0,0,1,2.07,2.24,4.529,4.529,0,0,1-.09.91Zm2.34-.85c.03-.69-.22-1.3-.95-1.3-.81,0-1.15.81-1.25,1.3Z" transform="translate(-0.13 -0.82)" fill="#fff"/>
        <path d="M39.58,14.92l-.14.6.02.02a2.288,2.288,0,0,1,1.6-.75,1.175,1.175,0,0,1,1.31.92,2.289,2.289,0,0,1,1.82-.92A1.168,1.168,0,0,1,45.5,16a5.9,5.9,0,0,1-.13.93L44.7,20.1H43.3l.66-3.17c.01-.03.03-.13.05-.22a2.5,2.5,0,0,0,.08-.45c0-.18-.08-.47-.52-.47a1.246,1.246,0,0,0-.95.58,3.831,3.831,0,0,0-.49,1.38l-.49,2.35H40.23l.68-3.22a2.95,2.95,0,0,0,.09-.62.466.466,0,0,0-.52-.47,1.3,1.3,0,0,0-.95.58,3.49,3.49,0,0,0-.46,1.35l-.5,2.38h-1.4l1.09-5.18Z" transform="translate(-0.13 -0.82)" fill="#fff"/>
        <path d="M47.61,17.94c-.04.81.43,1.28,1.01,1.28a1.224,1.224,0,0,0,1.09-.72l1.26.21a2.514,2.514,0,0,1-2.36,1.51,2.257,2.257,0,0,1-2.35-2.41,2.875,2.875,0,0,1,2.89-3.02,2,2,0,0,1,2.07,2.24,4.529,4.529,0,0,1-.09.91Zm2.34-.85c.03-.69-.22-1.3-.95-1.3-.81,0-1.15.81-1.25,1.3Z" transform="translate(-0.13 -0.82)" fill="#fff"/>
        <path d="M54.03,14.92l-.14.65.02.02a2.676,2.676,0,0,1,1.83-.8,1.261,1.261,0,0,1,1.37,1.34,5.673,5.673,0,0,1-.15,1.03l-.62,2.94h-1.4l.62-2.95a.8.8,0,0,1,.03-.16,1.675,1.675,0,0,0,.04-.2,1.732,1.732,0,0,0,.06-.42.552.552,0,0,0-.6-.58,1.626,1.626,0,0,0-1.13.7,3.594,3.594,0,0,0-.49,1.48l-.45,2.13h-1.4l1.09-5.18Z" transform="translate(-0.13 -0.82)" fill="#fff"/>
        <path d="M58.3,14.92h.68l.17-.83,1.6-.97-.37,1.8h.86l-.22,1.02h-.86l-.45,2.19c-.01.02-.02.1-.04.18a2.062,2.062,0,0,0-.08.49c0,.34.31.34.47.34.09,0,.41-.03.46-.03l-.22,1.04a3.445,3.445,0,0,1-.74.07c-.7,0-1.42-.2-1.42-1.07a5.259,5.259,0,0,1,.18-1.11l.44-2.1h-.68Z" transform="translate(-0.13 -0.82)" fill="#fff"/>
        <path d="M65.46,17.71c.02.62.05,1.28,1.42,1.28.5,0,1.36-.13,1.36-.88,0-.51-.43-.69-1.21-1.03-1.24-.54-2.11-.92-2.11-2.16,0-.86.54-2.1,2.55-2.1,1.37,0,2.6.59,2.71,2.16l-1.41.07c-.08-.83-.64-1.06-1.31-1.06-.25,0-1.13,0-1.13.75,0,.51.48.72,1.3,1.07,1.23.53,2.07.9,2.07,2.12,0,1.05-.81,2.29-2.83,2.29-1.02,0-2.31-.32-2.67-1.44a3.067,3.067,0,0,1-.14-1Z" transform="translate(-0.13 -0.82)" fill="#fff"/>
        <path d="M75.41,18.37a2.6,2.6,0,0,1-2.53,1.85A2.035,2.035,0,0,1,70.73,18a2.992,2.992,0,0,1,2.96-3.21,1.9,1.9,0,0,1,2.09,1.74l-1.34.14a.823.823,0,0,0-.84-.84c-1.09,0-1.48,1.51-1.48,2.34,0,.67.4.95.79.95a1.246,1.246,0,0,0,1.13-.97Z" transform="translate(-0.13 -0.82)" fill="#fff"/>
        <path d="M79.21,14.79a2.193,2.193,0,0,1,2.43,2.34,2.948,2.948,0,0,1-2.96,3.09,2.2,2.2,0,0,1-2.41-2.27A2.893,2.893,0,0,1,79.21,14.79Zm0,1.06c-1.2,0-1.55,1.46-1.55,2.08a1.12,1.12,0,0,0,1.07,1.23c1.01,0,1.52-1.26,1.52-2.21A1.017,1.017,0,0,0,79.21,15.85Z" transform="translate(-0.13 -0.82)" fill="#fff"/>
        <path d="M84.64,14.92,84,17.99a.412.412,0,0,0-.02.09,3.289,3.289,0,0,0-.1.59.558.558,0,0,0,.59.55,1.546,1.546,0,0,0,1.05-.58,2.826,2.826,0,0,0,.52-1.26l.51-2.46h1.4L86.87,20.1H85.56l.15-.68-.02-.02a2.657,2.657,0,0,1-1.85.82,1.27,1.27,0,0,1-1.37-1.35,5.035,5.035,0,0,1,.16-1.06l.61-2.89Z" transform="translate(-0.13 -0.82)" fill="#fff"/>
        <path d="M88.86,14.92h.68l.17-.83,1.6-.97-.37,1.8h.86l-.22,1.02h-.86l-.45,2.19c-.01.02-.02.1-.04.18a2.061,2.061,0,0,0-.08.49c0,.34.31.34.47.34.09,0,.41-.03.46-.03l-.22,1.04a3.445,3.445,0,0,1-.74.07c-.7,0-1.42-.2-1.42-1.07a5.259,5.259,0,0,1,.18-1.11l.44-2.1h-.68Z" transform="translate(-0.13 -0.82)" fill="#fff"/>
        <path d="M97.89,20.1l.12-.54-.02-.02a2.15,2.15,0,0,1-1.61.68c-1.11,0-1.8-.78-1.8-2.17,0-1.67,1.01-3.26,2.56-3.26a1.742,1.742,0,0,1,1.57.83l.56-2.68h1.4l-1.5,7.16Zm-.98-.94c1.03,0,1.43-1.33,1.43-2.08a1.093,1.093,0,0,0-1-1.21c-.9,0-1.4,1.21-1.4,2.12C95.94,18.63,96.28,19.16,96.91,19.16Z" transform="translate(-0.13 -0.82)" fill="#fff"/>
        <path d="M102.06,17.94c-.04.81.43,1.28,1.01,1.28a1.224,1.224,0,0,0,1.09-.72l1.26.21a2.514,2.514,0,0,1-2.36,1.51,2.257,2.257,0,0,1-2.35-2.41,2.875,2.875,0,0,1,2.89-3.02,2,2,0,0,1,2.07,2.24,4.529,4.529,0,0,1-.09.91Zm2.33-.85c.03-.69-.22-1.3-.95-1.3-.81,0-1.15.81-1.25,1.3Z" transform="translate(-0.13 -0.82)" fill="#fff"/>
        <path d="M110.47,17.71c.02.62.05,1.28,1.42,1.28.5,0,1.36-.13,1.36-.88,0-.51-.43-.69-1.21-1.03-1.24-.54-2.11-.92-2.11-2.16,0-.86.54-2.1,2.55-2.1,1.37,0,2.6.59,2.71,2.16l-1.41.07c-.08-.83-.64-1.06-1.31-1.06-.25,0-1.13,0-1.13.75,0,.51.48.72,1.3,1.07,1.23.53,2.07.9,2.07,2.12,0,1.05-.81,2.29-2.83,2.29-1.02,0-2.31-.32-2.67-1.44a3.067,3.067,0,0,1-.14-1Z" transform="translate(-0.13 -0.82)" fill="#fff"/>
        <path d="M117.98,14.92l-.64,3.07a.413.413,0,0,0-.02.09,3.289,3.289,0,0,0-.1.59.558.558,0,0,0,.59.55,1.546,1.546,0,0,0,1.05-.58,2.826,2.826,0,0,0,.52-1.26l.51-2.46h1.4l-1.08,5.18H118.9l.15-.68-.02-.02a2.657,2.657,0,0,1-1.85.82,1.27,1.27,0,0,1-1.37-1.35,5.034,5.034,0,0,1,.16-1.06l.61-2.89Z" transform="translate(-0.13 -0.82)" fill="#fff"/>
        <path d="M124.11,14.92l-1.08,5.18h-1.4l1.08-5.18Zm.41-1.98-.27,1.27h-1.4l.27-1.27Z" transform="translate(-0.13 -0.82)" fill="#fff"/>
        <path d="M125.61,18.43a1.123,1.123,0,0,0,1.18.82c.5,0,.97-.25.97-.6,0-.28-.1-.31-1.06-.64-.88-.3-1.67-.57-1.67-1.54,0-.87.76-1.68,2.36-1.68a1.942,1.942,0,0,1,2.16,1.36l-1.3.23a1.074,1.074,0,0,0-1.08-.62c-.58,0-.82.23-.82.48,0,.31.26.39.98.6.78.23,1.86.54,1.86,1.56,0,.7-.54,1.82-2.37,1.82-1.33,0-2.24-.46-2.57-1.57Z" transform="translate(-0.13 -0.82)" fill="#fff"/>
        <path d="M131.16,18.43a1.123,1.123,0,0,0,1.18.82c.5,0,.97-.25.97-.6,0-.28-.1-.31-1.06-.64-.88-.3-1.67-.57-1.67-1.54,0-.87.76-1.68,2.36-1.68a1.942,1.942,0,0,1,2.16,1.36l-1.3.23a1.074,1.074,0,0,0-1.08-.62c-.58,0-.82.23-.82.48,0,.31.26.39.98.6.78.23,1.86.54,1.86,1.56,0,.7-.54,1.82-2.37,1.82-1.33,0-2.24-.46-2.57-1.57Z" transform="translate(-0.13 -0.82)" fill="#fff"/>
        <path d="M137.08,17.94c-.04.81.43,1.28,1.01,1.28a1.224,1.224,0,0,0,1.09-.72l1.26.21a2.514,2.514,0,0,1-2.36,1.51,2.257,2.257,0,0,1-2.35-2.41,2.875,2.875,0,0,1,2.89-3.02,2,2,0,0,1,2.07,2.24,4.53,4.53,0,0,1-.09.91Zm2.33-.85c.03-.69-.22-1.3-.95-1.3-.81,0-1.15.81-1.25,1.3Z" transform="translate(-0.13 -0.82)" fill="#fff"/>
        <path d="M17.43,32.1l-.26-5.98h-.02L16.02,32.1H14.69l1.5-7.16h2.1l.21,5.02h.02l2.43-5.02h2.12l-1.5,7.16H20.23l1.41-5.92-.02-.02-2.8,5.94Z" transform="translate(-0.13 -0.82)" fill="#fff"/>
        <path d="M26.16,26.79a2.193,2.193,0,0,1,2.43,2.34,2.948,2.948,0,0,1-2.96,3.09,2.2,2.2,0,0,1-2.41-2.27A2.893,2.893,0,0,1,26.16,26.79Zm0,1.06c-1.2,0-1.55,1.46-1.55,2.08a1.12,1.12,0,0,0,1.07,1.23c1.01,0,1.52-1.26,1.52-2.21A1.017,1.017,0,0,0,26.16,27.85Z" transform="translate(-0.13 -0.82)" fill="#fff"/>
        <path d="M30.35,32.1l-1.04-5.18h1.37l.37,2.26c.01.03.02.11.04.21a9.561,9.561,0,0,1,.13,1.01h.02a2.008,2.008,0,0,1,.17-.34l.2-.36c.08-.16.2-.38.33-.6l1.29-2.18h1.51L31.55,32.1Z" transform="translate(-0.13 -0.82)" fill="#fff"/>
        <path d="M36.98,26.92,35.9,32.1H34.5l1.08-5.18Zm.42-1.98-.27,1.27h-1.4L36,24.94Z" transform="translate(-0.13 -0.82)" fill="#fff"/>
        <path d="M39.69,26.92l-.14.6.02.02a2.288,2.288,0,0,1,1.6-.75,1.175,1.175,0,0,1,1.31.92,2.289,2.289,0,0,1,1.82-.92A1.168,1.168,0,0,1,45.61,28a5.9,5.9,0,0,1-.13.93l-.67,3.17h-1.4l.66-3.17c.01-.03.03-.13.05-.22a2.5,2.5,0,0,0,.08-.45c0-.18-.08-.47-.52-.47a1.246,1.246,0,0,0-.95.58,3.831,3.831,0,0,0-.49,1.38l-.49,2.35H40.34l.68-3.22a2.95,2.95,0,0,0,.09-.62.466.466,0,0,0-.52-.47,1.3,1.3,0,0,0-.95.58,3.49,3.49,0,0,0-.46,1.35l-.5,2.38h-1.4l1.09-5.18Z" transform="translate(-0.13 -0.82)" fill="#fff"/>
        <path d="M47.72,29.94c-.04.81.43,1.28,1.01,1.28a1.224,1.224,0,0,0,1.09-.72l1.26.21a2.514,2.514,0,0,1-2.36,1.51,2.257,2.257,0,0,1-2.35-2.41,2.875,2.875,0,0,1,2.89-3.02,2,2,0,0,1,2.07,2.24,4.529,4.529,0,0,1-.09.91Zm2.34-.85c.03-.69-.22-1.3-.95-1.3-.81,0-1.15.81-1.25,1.3Z" transform="translate(-0.13 -0.82)" fill="#fff"/>
        <path d="M54.14,26.92l-.14.65.02.02a2.676,2.676,0,0,1,1.83-.8,1.261,1.261,0,0,1,1.37,1.34,5.673,5.673,0,0,1-.15,1.03l-.62,2.94h-1.4l.62-2.95a.8.8,0,0,1,.03-.16,1.675,1.675,0,0,0,.04-.2,1.732,1.732,0,0,0,.06-.42.552.552,0,0,0-.6-.58,1.626,1.626,0,0,0-1.13.7,3.594,3.594,0,0,0-.49,1.48l-.45,2.13h-1.4l1.09-5.18Z" transform="translate(-0.13 -0.82)" fill="#fff"/>
        <path d="M58.41,26.92h.68l.17-.83,1.6-.97-.37,1.8h.86l-.22,1.02h-.86l-.45,2.19c-.01.02-.02.1-.04.18a2.062,2.062,0,0,0-.08.49c0,.34.31.34.47.34.09,0,.41-.03.46-.03l-.22,1.04a3.445,3.445,0,0,1-.74.07c-.7,0-1.42-.2-1.42-1.07a5.259,5.259,0,0,1,.18-1.11l.44-2.1h-.68Z" transform="translate(-0.13 -0.82)" fill="#fff"/>
        <path d="M64.31,26.79a2.193,2.193,0,0,1,2.43,2.34,2.948,2.948,0,0,1-2.96,3.09,2.2,2.2,0,0,1-2.41-2.27A2.893,2.893,0,0,1,64.31,26.79Zm0,1.06c-1.2,0-1.55,1.46-1.55,2.08a1.12,1.12,0,0,0,1.07,1.23c1.01,0,1.52-1.26,1.52-2.21A1.017,1.017,0,0,0,64.31,27.85Z" transform="translate(-0.13 -0.82)" fill="#fff"/>
        <path d="M71.68,29.71c.02.62.05,1.28,1.42,1.28.5,0,1.36-.13,1.36-.88,0-.51-.43-.69-1.21-1.03-1.24-.54-2.11-.92-2.11-2.16,0-.86.54-2.1,2.55-2.1,1.37,0,2.6.59,2.71,2.16l-1.41.07c-.08-.83-.64-1.06-1.31-1.06-.25,0-1.13,0-1.13.75,0,.51.48.72,1.3,1.07,1.23.53,2.07.9,2.07,2.12,0,1.05-.81,2.29-2.83,2.29-1.02,0-2.31-.32-2.67-1.44a3.067,3.067,0,0,1-.14-1Z" transform="translate(-0.13 -0.82)" fill="#fff"/>
        <path d="M81.63,30.37a2.6,2.6,0,0,1-2.53,1.85A2.035,2.035,0,0,1,76.95,30a2.992,2.992,0,0,1,2.96-3.21A1.9,1.9,0,0,1,82,28.53l-1.34.14a.823.823,0,0,0-.84-.84c-1.09,0-1.48,1.51-1.48,2.34,0,.67.4.95.79.95a1.246,1.246,0,0,0,1.13-.97Z" transform="translate(-0.13 -0.82)" fill="#fff"/>
        <path d="M85.43,26.79a2.193,2.193,0,0,1,2.43,2.34,2.948,2.948,0,0,1-2.96,3.09,2.2,2.2,0,0,1-2.41-2.27A2.893,2.893,0,0,1,85.43,26.79Zm0,1.06c-1.2,0-1.55,1.46-1.55,2.08a1.12,1.12,0,0,0,1.07,1.23c1.01,0,1.52-1.26,1.52-2.21A1.017,1.017,0,0,0,85.43,27.85Z" transform="translate(-0.13 -0.82)" fill="#fff"/>
        <path d="M90.86,26.92l-.64,3.07a.412.412,0,0,0-.02.09,3.29,3.29,0,0,0-.1.59.558.558,0,0,0,.59.55,1.546,1.546,0,0,0,1.05-.58,2.826,2.826,0,0,0,.52-1.26l.51-2.46h1.4L93.09,32.1H91.78l.15-.68-.02-.02a2.657,2.657,0,0,1-1.85.82,1.27,1.27,0,0,1-1.37-1.35,5.035,5.035,0,0,1,.16-1.06l.61-2.89Z" transform="translate(-0.13 -0.82)" fill="#fff"/>
        <path d="M95.08,26.92h.68l.17-.83,1.6-.97-.37,1.8h.86l-.22,1.02h-.86l-.45,2.19c-.01.02-.02.1-.04.18a2.062,2.062,0,0,0-.08.49c0,.34.31.34.47.34.09,0,.41-.03.46-.03l-.22,1.04a3.445,3.445,0,0,1-.74.07c-.7,0-1.42-.2-1.42-1.07a5.259,5.259,0,0,1,.18-1.11l.44-2.1h-.68Z" transform="translate(-0.13 -0.82)" fill="#fff"/>
        <path d="M102.24,29.71c.02.62.05,1.28,1.42,1.28.5,0,1.36-.13,1.36-.88,0-.51-.43-.69-1.21-1.03-1.24-.54-2.11-.92-2.11-2.16,0-.86.54-2.1,2.55-2.1,1.37,0,2.6.59,2.71,2.16l-1.41.07c-.08-.83-.64-1.06-1.31-1.06-.25,0-1.13,0-1.13.75,0,.51.48.72,1.3,1.07,1.23.53,2.07.9,2.07,2.12,0,1.05-.81,2.29-2.83,2.29-1.02,0-2.31-.32-2.67-1.44a3.067,3.067,0,0,1-.14-1Z" transform="translate(-0.13 -0.82)" fill="#fff"/>
        <path d="M108.7,32.1l-1.04-5.18h1.37l.37,2.26c.01.03.02.11.04.21a9.562,9.562,0,0,1,.13,1.01h.02a2.009,2.009,0,0,1,.17-.34l.2-.36c.08-.16.2-.38.33-.6l1.29-2.18h1.51L109.9,32.1Z" transform="translate(-0.13 -0.82)" fill="#fff"/>
        <path d="M115.33,26.92l-1.08,5.18h-1.4l1.08-5.18Zm.42-1.98-.27,1.27h-1.4l.27-1.27Z" transform="translate(-0.13 -0.82)" fill="#fff"/>
        <path d="M115.6,31.15l2.84-3.14h-2.32l.23-1.09h4.07l-.17.83-2.87,3.21h2.5l-.24,1.14H115.4Z" transform="translate(-0.13 -0.82)" fill="#fff"/>
        <path d="M120.6,31.15l2.84-3.14h-2.32l.23-1.09h4.07l-.17.83-2.87,3.21h2.5l-.24,1.14H120.4Z" transform="translate(-0.13 -0.82)" fill="#fff"/>
        <path d="M127.27,29.94c-.04.81.43,1.28,1.01,1.28a1.224,1.224,0,0,0,1.09-.72l1.26.21a2.514,2.514,0,0,1-2.36,1.51,2.257,2.257,0,0,1-2.35-2.41,2.875,2.875,0,0,1,2.89-3.02,2,2,0,0,1,2.07,2.24,4.529,4.529,0,0,1-.09.91Zm2.34-.85c.03-.69-.22-1.3-.95-1.3-.81,0-1.15.81-1.25,1.3Z" transform="translate(-0.13 -0.82)" fill="#fff"/>
        <path d="M133.61,26.92l-.21.98.02.02a2.025,2.025,0,0,1,1.57-1.13,1.549,1.549,0,0,1,.65.15l-.54,1.15a1.014,1.014,0,0,0-.4-.07,1.5,1.5,0,0,0-1.11.65,4.732,4.732,0,0,0-.63,1.8l-.34,1.63h-1.4l1.08-5.18Z" transform="translate(-0.13 -0.82)" fill="#fff"/>
        <path d="M138.12,26.79a2.193,2.193,0,0,1,2.43,2.34,2.948,2.948,0,0,1-2.96,3.09,2.2,2.2,0,0,1-2.41-2.27A2.893,2.893,0,0,1,138.12,26.79Zm0,1.06c-1.2,0-1.55,1.46-1.55,2.08a1.12,1.12,0,0,0,1.07,1.23c1.01,0,1.52-1.26,1.52-2.21A1.017,1.017,0,0,0,138.12,27.85Z" transform="translate(-0.13 -0.82)" fill="#fff"/>
        <path d="M2.87,44.1l-.26-5.98H2.59L1.46,44.1H.13l1.5-7.16h2.1l.21,5.02h.02l2.43-5.02H8.51L7.01,44.1H5.67l1.41-5.92-.02-.02L4.26,44.1Z" transform="translate(-0.13 -0.82)" fill="#fff"/>
        <path d="M11.6,38.79a2.193,2.193,0,0,1,2.43,2.34,2.948,2.948,0,0,1-2.96,3.09,2.2,2.2,0,0,1-2.41-2.27A2.893,2.893,0,0,1,11.6,38.79Zm0,1.06c-1.2,0-1.55,1.46-1.55,2.08a1.12,1.12,0,0,0,1.07,1.23c1.01,0,1.52-1.26,1.52-2.21A1.017,1.017,0,0,0,11.6,39.85Z" transform="translate(-0.13 -0.82)" fill="#fff"/>
        <path d="M15.79,44.1l-1.04-5.18h1.37l.37,2.26c.01.03.02.11.04.21a9.562,9.562,0,0,1,.13,1.01h.02a2.008,2.008,0,0,1,.17-.34l.2-.36c.08-.16.2-.38.33-.6l1.29-2.18h1.51L16.99,44.1Z" transform="translate(-0.13 -0.82)" fill="#fff"/>
        <path d="M22.42,38.92,21.34,44.1h-1.4l1.08-5.18Zm.42-1.98-.27,1.27h-1.4l.27-1.27Z" transform="translate(-0.13 -0.82)" fill="#fff"/>
        <path d="M25.13,38.92l-.14.6.02.02a2.288,2.288,0,0,1,1.6-.75,1.175,1.175,0,0,1,1.31.92,2.289,2.289,0,0,1,1.82-.92A1.168,1.168,0,0,1,31.05,40a5.9,5.9,0,0,1-.13.93l-.67,3.17h-1.4l.66-3.17c.01-.03.03-.13.05-.22a2.5,2.5,0,0,0,.08-.45c0-.18-.08-.47-.52-.47a1.246,1.246,0,0,0-.95.58,3.831,3.831,0,0,0-.49,1.38l-.49,2.35H25.78l.68-3.22a2.95,2.95,0,0,0,.09-.62.466.466,0,0,0-.52-.47,1.3,1.3,0,0,0-.95.58,3.49,3.49,0,0,0-.46,1.35l-.5,2.38h-1.4l1.09-5.18Z" transform="translate(-0.13 -0.82)" fill="#fff"/>
        <path d="M33.16,41.94c-.04.81.43,1.28,1.01,1.28a1.224,1.224,0,0,0,1.09-.72l1.26.21a2.514,2.514,0,0,1-2.36,1.51,2.257,2.257,0,0,1-2.35-2.41,2.875,2.875,0,0,1,2.89-3.02,2,2,0,0,1,2.07,2.24,4.529,4.529,0,0,1-.09.91Zm2.34-.85c.03-.69-.22-1.3-.95-1.3-.81,0-1.15.81-1.25,1.3Z" transform="translate(-0.13 -0.82)" fill="#fff"/>
        <path d="M39.58,38.92l-.14.65.02.02a2.676,2.676,0,0,1,1.83-.8,1.261,1.261,0,0,1,1.37,1.34,5.673,5.673,0,0,1-.15,1.03l-.62,2.94h-1.4l.62-2.95a.8.8,0,0,1,.03-.16,1.675,1.675,0,0,0,.04-.2,1.732,1.732,0,0,0,.06-.42.552.552,0,0,0-.6-.58,1.626,1.626,0,0,0-1.13.7,3.594,3.594,0,0,0-.49,1.48l-.45,2.13h-1.4l1.09-5.18Z" transform="translate(-0.13 -0.82)" fill="#fff"/>
        <path d="M43.85,38.92h.68l.17-.83,1.6-.97-.37,1.8h.86l-.22,1.02h-.86l-.45,2.19c-.01.02-.02.1-.04.18a2.062,2.062,0,0,0-.08.49c0,.34.31.34.47.34.09,0,.41-.03.46-.03l-.22,1.04a3.445,3.445,0,0,1-.74.07c-.7,0-1.42-.2-1.42-1.07a5.259,5.259,0,0,1,.18-1.11l.44-2.1h-.68Z" transform="translate(-0.13 -0.82)" fill="#fff"/>
        <path d="M50.93,36.94h2.45a4.388,4.388,0,0,1,1.77.22,1.556,1.556,0,0,1,.98,1.52,1.708,1.708,0,0,1-1.36,1.68v.02a1.454,1.454,0,0,1,1.17,1.41,2.259,2.259,0,0,1-1.22,2,4.366,4.366,0,0,1-1.91.31H49.43Zm.22,5.96h1.42a3.724,3.724,0,0,0,1.17-.11,1.019,1.019,0,0,0,.7-.94c0-.82-.92-.82-1.14-.82H51.54Zm.65-3.07h1.12a3.122,3.122,0,0,0,1.23-.16.9.9,0,0,0,.52-.82c0-.71-.66-.71-1.38-.71H52.15Z" transform="translate(-0.13 -0.82)" fill="#fff"/>
        <path d="M57.24,40.27a2.267,2.267,0,0,1,2.36-1.48c1.83,0,1.97,1.08,1.97,1.39a7.425,7.425,0,0,1-.27,1.58c-.02.08-.12.52-.13.61a4.619,4.619,0,0,0-.14.99,2.5,2.5,0,0,0,.11.74H59.78a2.277,2.277,0,0,1-.1-.59,2.03,2.03,0,0,1-1.51.71,1.438,1.438,0,0,1-1.49-1.51c0-1.55,1.44-1.67,2.11-1.72a6.727,6.727,0,0,0,1.34-.2,1.627,1.627,0,0,0,.09-.47c0-.38-.35-.53-.72-.53a.814.814,0,0,0-.89.59Zm2.7,1.41a1.2,1.2,0,0,1-.33.06c-.86.11-1.61.24-1.61.85a.583.583,0,0,0,.64.58c.99,0,1.18-.88,1.27-1.3Z" transform="translate(-0.13 -0.82)" fill="#fff"/>
        <path d="M62.74,38.92h.68l.17-.83,1.6-.97-.37,1.8h.86l-.22,1.02H64.6l-.45,2.19c-.01.02-.02.1-.04.18a2.062,2.062,0,0,0-.08.49c0,.34.31.34.47.34.09,0,.41-.03.46-.03l-.22,1.04a3.445,3.445,0,0,1-.74.07c-.7,0-1.42-.2-1.42-1.07a5.259,5.259,0,0,1,.18-1.11l.44-2.1h-.68Z" transform="translate(-0.13 -0.82)" fill="#fff"/>
        <path d="M66.07,38.92h.68l.17-.83,1.6-.97-.37,1.8h.86l-.22,1.02h-.86l-.45,2.19c-.01.02-.02.1-.04.18a2.061,2.061,0,0,0-.08.49c0,.34.31.34.47.34.09,0,.41-.03.46-.03l-.22,1.04a3.445,3.445,0,0,1-.74.07c-.7,0-1.42-.2-1.42-1.07a5.259,5.259,0,0,1,.18-1.11l.44-2.1h-.68Z" transform="translate(-0.13 -0.82)" fill="#fff"/>
        <path d="M69.46,40.27a2.267,2.267,0,0,1,2.36-1.48c1.83,0,1.97,1.08,1.97,1.39a7.425,7.425,0,0,1-.27,1.58c-.02.08-.12.52-.13.61a4.619,4.619,0,0,0-.14.99,2.5,2.5,0,0,0,.11.74H72a2.277,2.277,0,0,1-.1-.59,2.03,2.03,0,0,1-1.51.71,1.438,1.438,0,0,1-1.49-1.51c0-1.55,1.44-1.67,2.11-1.72a6.727,6.727,0,0,0,1.34-.2,1.627,1.627,0,0,0,.09-.47c0-.38-.35-.53-.72-.53a.814.814,0,0,0-.89.59Zm2.7,1.41a1.2,1.2,0,0,1-.33.06c-.86.11-1.61.24-1.61.85a.583.583,0,0,0,.64.58c.99,0,1.18-.88,1.27-1.3Z" transform="translate(-0.13 -0.82)" fill="#fff"/>
        <path d="M75.59,42.43a1.123,1.123,0,0,0,1.18.82c.5,0,.97-.25.97-.6,0-.28-.1-.31-1.06-.64-.88-.3-1.67-.57-1.67-1.54,0-.87.76-1.68,2.36-1.68a1.942,1.942,0,0,1,2.16,1.36l-1.3.23a1.074,1.074,0,0,0-1.08-.62c-.58,0-.82.23-.82.48,0,.31.26.39.98.6.78.23,1.86.54,1.86,1.56,0,.7-.54,1.82-2.37,1.82-1.33,0-2.24-.46-2.57-1.57Z" transform="translate(-0.13 -0.82)" fill="#fff"/>
        <path d="M81.5,41.94c-.04.81.43,1.28,1.01,1.28a1.224,1.224,0,0,0,1.09-.72l1.26.21a2.514,2.514,0,0,1-2.36,1.51,2.257,2.257,0,0,1-2.35-2.41,2.875,2.875,0,0,1,2.89-3.02,2,2,0,0,1,2.07,2.24,4.529,4.529,0,0,1-.09.91Zm2.34-.85c.03-.69-.22-1.3-.95-1.3-.81,0-1.15.81-1.25,1.3Z" transform="translate(-0.13 -0.82)" fill="#fff"/>
        <path d="M87.92,38.92l-.14.65.02.02a2.676,2.676,0,0,1,1.83-.8A1.261,1.261,0,0,1,91,40.13a5.673,5.673,0,0,1-.15,1.03l-.62,2.94h-1.4l.62-2.95a.8.8,0,0,1,.03-.16,1.675,1.675,0,0,0,.04-.2,1.732,1.732,0,0,0,.06-.42.552.552,0,0,0-.6-.58,1.626,1.626,0,0,0-1.13.7,3.594,3.594,0,0,0-.49,1.48l-.45,2.13h-1.4l1.09-5.18Z" transform="translate(-0.13 -0.82)" fill="#fff"/>
        <path d="M95.11,44.1l.12-.54-.02-.02a2.15,2.15,0,0,1-1.61.68c-1.11,0-1.8-.78-1.8-2.17,0-1.67,1.01-3.26,2.56-3.26a1.742,1.742,0,0,1,1.57.83l.56-2.68h1.4l-1.5,7.16Zm-.98-.94c1.03,0,1.43-1.33,1.43-2.08a1.093,1.093,0,0,0-1-1.21c-.9,0-1.4,1.21-1.4,2.12C93.16,42.63,93.5,43.16,94.13,43.16Z" transform="translate(-0.13 -0.82)" fill="#fff"/>
        <path d="M98.36,40.27a2.267,2.267,0,0,1,2.36-1.48c1.83,0,1.97,1.08,1.97,1.39a7.425,7.425,0,0,1-.27,1.58c-.02.08-.12.52-.13.61a4.619,4.619,0,0,0-.14.99,2.5,2.5,0,0,0,.11.74H100.9a2.277,2.277,0,0,1-.1-.59,2.03,2.03,0,0,1-1.51.71,1.438,1.438,0,0,1-1.49-1.51c0-1.55,1.44-1.67,2.11-1.72a6.727,6.727,0,0,0,1.34-.2,1.627,1.627,0,0,0,.09-.47c0-.38-.35-.53-.72-.53a.814.814,0,0,0-.89.59Zm2.7,1.41a1.2,1.2,0,0,1-.33.06c-.86.11-1.61.24-1.61.85a.583.583,0,0,0,.64.58c.99,0,1.18-.88,1.27-1.3Z" transform="translate(-0.13 -0.82)" fill="#fff"/>
        <path d="M104.49,42.43a1.123,1.123,0,0,0,1.18.82c.5,0,.97-.25.97-.6,0-.28-.1-.31-1.06-.64-.88-.3-1.67-.57-1.67-1.54,0-.87.76-1.68,2.36-1.68a1.942,1.942,0,0,1,2.16,1.36l-1.3.23a1.074,1.074,0,0,0-1.08-.62c-.58,0-.82.23-.82.48,0,.31.26.39.98.6.78.23,1.86.54,1.86,1.56,0,.7-.54,1.82-2.37,1.82-1.33,0-2.24-.46-2.57-1.57Z" transform="translate(-0.13 -0.82)" fill="#fff"/>
        <path d="M113.25,41.71c.02.62.05,1.28,1.42,1.28.5,0,1.36-.13,1.36-.88,0-.51-.43-.69-1.21-1.03-1.24-.54-2.11-.92-2.11-2.16,0-.86.54-2.1,2.55-2.1,1.37,0,2.6.59,2.71,2.16l-1.41.07c-.08-.83-.64-1.06-1.31-1.06-.25,0-1.13,0-1.13.75,0,.51.48.72,1.3,1.07,1.23.53,2.07.9,2.07,2.12,0,1.05-.81,2.29-2.83,2.29-1.02,0-2.31-.32-2.67-1.44a3.067,3.067,0,0,1-.14-1Z" transform="translate(-0.13 -0.82)" fill="#fff"/>
        <path d="M119.71,44.1l-1.04-5.18h1.37l.37,2.26c.01.03.02.11.04.21a9.561,9.561,0,0,1,.13,1.01h.02a2.008,2.008,0,0,1,.17-.34l.2-.36c.08-.16.2-.38.33-.6l1.29-2.18h1.51l-3.19,5.18Z" transform="translate(-0.13 -0.82)" fill="#fff"/>
        <path d="M126.33,38.92l-1.08,5.18h-1.4l1.08-5.18Zm.43-1.98-.27,1.27h-1.4l.27-1.27Z" transform="translate(-0.13 -0.82)" fill="#fff"/>
        <path d="M126.61,43.15l2.84-3.14h-2.32l.23-1.09h4.07l-.17.83-2.87,3.21h2.5l-.24,1.14h-4.24Z" transform="translate(-0.13 -0.82)" fill="#fff"/>
        <path d="M133.97,38.92l-.21.98.02.02a2.025,2.025,0,0,1,1.57-1.13,1.549,1.549,0,0,1,.65.15l-.54,1.15a1.014,1.014,0,0,0-.4-.07,1.5,1.5,0,0,0-1.11.65,4.732,4.732,0,0,0-.63,1.8l-.34,1.63h-1.4l1.08-5.18Z" transform="translate(-0.13 -0.82)" fill="#fff"/>
        <path d="M136.16,40.27a2.267,2.267,0,0,1,2.36-1.48c1.83,0,1.97,1.08,1.97,1.39a7.426,7.426,0,0,1-.27,1.58c-.02.08-.12.52-.13.61a4.619,4.619,0,0,0-.14.99,2.5,2.5,0,0,0,.11.74H138.7a2.277,2.277,0,0,1-.1-.59,2.03,2.03,0,0,1-1.51.71,1.438,1.438,0,0,1-1.49-1.51c0-1.55,1.44-1.67,2.11-1.72a6.727,6.727,0,0,0,1.34-.2,1.627,1.627,0,0,0,.09-.47c0-.38-.35-.53-.72-.53a.814.814,0,0,0-.89.59Zm2.69,1.41a1.2,1.2,0,0,1-.33.06c-.86.11-1.61.24-1.61.85a.583.583,0,0,0,.64.58c.99,0,1.18-.88,1.27-1.3Z" transform="translate(-0.13 -0.82)" fill="#fff"/>
      </g>
      <g   transform="translate(157.02)">
        <path d="M.75,35.24l-.6.15.14.6C2.1,43.48,3.14,49.28,4.05,54.41,6.49,68.09,8.11,77.13,21.22,100.9l.2.37.42-.05c8.55-.98,28.62-7.05,39.39-13.97l.39-.25-.12-.45c-6.07-21.44-5.22-38.79-3.6-57.65l.06-.66-.67-.02C34.68,27.72,19.44,30.41.75,35.24Zm55.86-5.78c-.63,7.4-1.13,14.58-1.13,21.88a126.937,126.937,0,0,0,4.71,35.09c-10.54,6.63-29.52,12.4-38.06,13.49C9.31,76.62,7.71,67.67,5.3,54.19,4.41,49.2,3.39,43.52,1.66,36.3,19.78,31.65,34.75,29.04,56.61,29.46Z" transform="translate(-0.15 -0.96)" fill="#fff"/>
        <path d="M72.12,1.4C59.96,21.7,56.36,43.91,60.79,71.32l.07.45.45.07c11.01,1.67,40.1,5.26,54.85,5.01l.37-.01.17-.33c2.22-4.18,9.57-26.18,10.2-41.52l.01-.28-.2-.19C117.36,25.43,92.8,8.31,72.86,1.13L72.38.96ZM60.22,49.96c0-17.63,4.19-33.05,12.72-47.46,19.56,7.18,43.37,23.75,52.7,32.73-.68,14.82-7.54,35.65-9.88,40.37-14.6.19-42.62-3.25-53.8-4.93A132.21,132.21,0,0,1,60.22,49.96Z" transform="translate(-0.15 -0.96)" fill="#fff"/>
        <path d="M113.06,37.07a4.73,4.73,0,0,0-4.2-.4c-4.8,1.3-7.9,6.7-12.3,9-.4-.3-1-.7-.6-1.2l5.6-7.4c2.1-2.7,4.8-5.2,5.1-8.7a5.633,5.633,0,0,0-1.5-4.7c-1.2-1.2-2.9-1.2-4.7-1.3-5.7,1.5-12.3.6-18.2,0-1.5.2-2.8,1.7-3.6,3-3,7.7,5.3,12.6,9.4,18.2l.4,1.2c-1.6.7-3-1.6-4.5-2.4-4.1-2.2-7.7-7.2-12.8-5.6-5,2.5-1.7,8.4-2,12.6.4,4.5-2.6,9.9,1.8,13.1,6.9,3.4,11.7-4.1,16.8-7.6a2.685,2.685,0,0,1,3,1.4c.5,5.6-.5,12,4.1,15.6a5.45,5.45,0,0,0,1.2-2.4c-3.2-3.5-3.5-8.6-2.9-13.4a1.834,1.834,0,0,1,2.3-.8c5.4,3.3,9.7,11.2,16.7,8.8,3.6-2.1,2.1-6.5,1.8-9.9C111.66,48.07,118.06,42.27,113.06,37.07Zm-21,13.5c-.3-.1-.4-.4-.7-.6l.6-.9c.3.1.5.4.7.6A2.361,2.361,0,0,1,92.06,50.57Zm20.1,4.4c.1,2.2,1.4,4.9-.1,6.9a3.88,3.88,0,0,1-4.1.6c-4.8-2-8.1-7.5-13-9.3l-1.9.5c-.3-1.2.5-1.9.7-2.9l15.4-.2c.5-.5.9-1.3.3-1.8l-.6-.5H93.76l-.8-1.1.1-18.5a1.428,1.428,0,0,0-1.7-.6l-.5.5.3,18.7-1.1,1.1-15.7-.1a1.577,1.577,0,0,0-.2,2.2c5.2.4,10.7.1,16.1.2.1,1,.8,1.8.5,2.9-5.4-2.5-8.5,5-13,6.9a6.1,6.1,0,0,1-5.1.8c-1.2-.4-1.7-1.8-2.1-2.8-.3-3,.7-5.8.6-8.9.7-3.8-3.3-9.4,1.5-11.4l1.9.3c4.4,2.4,8.4,5.9,12.7,8.5a2.533,2.533,0,0,0,3-1.6c.7-1.7-.9-2.8-1.8-4.1-3.4-4.9-11.4-9.5-7.4-16,1.3-1.7,3.9-.9,5.6-.8a28.813,28.813,0,0,0,13.7-.3,4.214,4.214,0,0,1,4.2,1.9c1.2,4.7-3,7.7-5.5,11.2-1.9,2.8-5.8,5.3-4.7,9a3.136,3.136,0,0,0,3.5,1c4.2-2.6,7.3-7.6,12-9a2.655,2.655,0,0,1,3.1,1.7C113.16,44.87,110.76,49.77,112.16,54.97Z" transform="translate(-0.15 -0.96)" fill="#fff"/>
        <path d="M54.76,60.37a5.57,5.57,0,0,0-1.5-4.3,9.753,9.753,0,0,0-8.8-2.2c-4.3,1.2-7.3,5.4-8.1,9.5-.5,1.4-.2,3.2-.8,4.3-1.5-7.2,3.5-12.3,5.6-18.3,1.5-7.4-5.2-12.3-8.3-18.1-3.3,6.4-11.2,12-7.5,20.1,2.8,5,5.9,9.9,5,16.2l-.3.1c-.4-2.2-.5-4.6-1.3-6.7a11.136,11.136,0,0,0-8.5-7.2,9.234,9.234,0,0,0-8.2,2.8c-4.1,4.8,3.8,8.4.6,13.2a3.479,3.479,0,0,0,1.5.7c4.6,1.5,4.6-4,8.1-5.2,1.3-.5,2.3.4,3.1,1.4,1.9,1.8-1.7,1.6-1.4,3.3a3.742,3.742,0,0,0,.7,3.1c1.2,1.3,3.1.7,4.7,1v.6c-2.1,2.9-6.3,1.5-8.4,4.4-1,2-.8,5,.7,6.5a8.835,8.835,0,0,1,5.8.3l-.6,1.6c-1.2,4.3,3.7,6,6,8.7,1.7-1.8,3.9-2.7,5.4-4.8,1.2-1.7.7-4.1.2-5.8a12.633,12.633,0,0,1,5.8-.1,6.324,6.324,0,0,0,.7-6.1c-1.5-2.5-4.7-2.2-7-3.4-.7-.3-1.8-1.1-1.4-2,1.6-.2,3.6.5,4.7-1.1a3.942,3.942,0,0,0,.6-3c-.3-1.1-1.4-1.5-1.9-2.3a4.462,4.462,0,0,1,2-2.3c2.9-.6,4.4,2.5,5.8,4.5,1.6,1.1,3.7.7,5.6.5C50.46,66.87,54.66,63.87,54.76,60.37Zm-27.6-9.6c-3.2-6.3,2.9-11.1,5.7-16.1,2.6,4.6,7.6,8.4,6.5,14.2-2.7,6-6.8,11.4-5.8,19h-1.2C33.06,61.27,30.26,55.97,27.16,50.77Zm-3.7,12.5c-3-.2-5.2,2.7-6.6,5-.6.1-1,.6-1.7.4,1.6-4.5-5.2-7.5-.9-11.6a8.571,8.571,0,0,1,6.5-1.4,10.407,10.407,0,0,1,4.9,3.4,16.843,16.843,0,0,1,2.4,8.6C27.46,65.97,25.66,63.67,23.46,63.27Zm19.5,16.3c.9,1,.6,2.7.3,3.9-2.6-.5-5.1.2-7.4.8.2,1.8,1.9,3.6,1.1,5.6a13.659,13.659,0,0,1-4,3.6c-1.6-1.1-3.8-2.3-4.3-4.3-.3-1.9.9-3.1,1.4-4.7-2.2-.7-4.8-1.5-7.5-1a4.034,4.034,0,0,1,.1-3.4c2.7-2.1,8.1-1.3,8.6-6h3.3C34.96,78.47,39.96,78.17,42.96,79.57Zm-3.2-7.9-.8.4H26.46a1.345,1.345,0,0,1-.6-1.8l.5-.5,13.2.1A1.276,1.276,0,0,1,39.76,71.67Zm4.5-8.2a4.711,4.711,0,0,0-4,.6,7.731,7.731,0,0,0-2.4,3.8c-.1-3.7.8-7.4,3.4-10.1,2.7-2.6,7.6-3.2,10.5-.6a4.57,4.57,0,0,1,.9,4.5c-1.3,2.1-2.4,4.3-2.1,6.9C47.66,68.57,47.36,64.07,44.26,63.47Z" transform="translate(-0.15 -0.96)" fill="#fff"/>
      </g>
    </g>
  </g>
</svg>
